<?xml version="1.0" encoding="UTF-8" standalone="no"?>
<!-- Created with Inkscape (http://www.inkscape.org/) -->

<svg
   xmlns:dc="http://purl.org/dc/elements/1.1/"
   xmlns:cc="http://creativecommons.org/ns#"
   xmlns:rdf="http://www.w3.org/1999/02/22-rdf-syntax-ns#"
   xmlns:svg="http://www.w3.org/2000/svg"
   xmlns="http://www.w3.org/2000/svg"
   xmlns:sodipodi="http://sodipodi.sourceforge.net/DTD/sodipodi-0.dtd"
   xmlns:inkscape="http://www.inkscape.org/namespaces/inkscape"
   width="800"
   height="800"
   viewBox="0 0 800.00001 800.00001"
   id="svg2"
   version="1.1"
   inkscape:version="0.91 r13725"
   sodipodi:docname="adivina_icono_noback.svg"
   inkscape:export-filename="/Users/colaborador/Dropbox/Escuela/ITCH/MCIE/3ยบ Semestre/Dispositivos Moviles/swift/Adivina_app/adivina_icono_noback.png"
   inkscape:export-xdpi="300"
   inkscape:export-ydpi="300">
  <defs
     id="defs4" />
  <sodipodi:namedview
     id="base"
     pagecolor="#ffffff"
     bordercolor="#666666"
     borderopacity="1.0"
     inkscape:pageopacity="0.0"
     inkscape:pageshadow="2"
     inkscape:zoom="0.98994949"
     inkscape:cx="252.515"
     inkscape:cy="479.5939"
     inkscape:document-units="px"
     inkscape:current-layer="layer1"
     showgrid="false"
     units="px"
     inkscape:window-width="2560"
     inkscape:window-height="1322"
     inkscape:window-x="0"
     inkscape:window-y="1"
     inkscape:window-maximized="1" />
  <metadata
     id="metadata7">
    <rdf:RDF>
      <cc:Work
         rdf:about="">
        <dc:format>image/svg+xml</dc:format>
        <dc:type
           rdf:resource="http://purl.org/dc/dcmitype/StillImage" />
        <dc:title></dc:title>
      </cc:Work>
    </rdf:RDF>
  </metadata>
  <g
     inkscape:label="Capa 1"
     inkscape:groupmode="layer"
     id="layer1"
     transform="translate(0,-252.36216)">
    <path
       style="fill:#ffffff;fill-opacity:1;stroke:#003359;stroke-opacity:1;stroke-width:30;stroke-miterlimit:4;stroke-dasharray:none"
       d="m 407.94139,987.83547 c 37.43305,-3.01062 202.46617,-22.94432 204.66181,-24.72024 0.32443,-0.26263 -0.86433,-6.04815 -2.6422,-12.85672 -4.33786,-16.61289 -5.12991,-23.43496 -5.21731,-44.93537 -0.17401,-42.79542 9.94709,-74.54947 52.13642,-163.57481 43.70343,-92.2203 49.43365,-112.68781 47.57367,-169.92723 -3.09559,-95.26132 -58.20646,-184.16266 -142.4686,-229.82121 -24.43501,-13.24043 -58.80523,-24.04073 -87.94537,-27.6354 -16.4384,-2.02782 -45.66896,-0.95126 -74.83292,2.75603 -103.74214,13.18758 -187.15946,64.17598 -223.69801,136.73415 -19.0614,37.85204 -25.22811,73.31508 -21.65083,124.50806 2.45323,35.10747 1.53466,55.41025 -3.23106,71.42046 -4.39681,14.77054 -13.38955,32.75335 -22.56143,45.11604 -7.37401,9.93937 -23.25307,26.42785 -29.407489,30.53617 -5.32725,3.55622 -4.62749,9.36068 1.588079,13.17246 8.09792,4.96623 21.68807,9.68673 32.95314,11.44622 14.04216,2.19328 18.44295,4.00457 23.05971,9.49127 4.85142,5.76552 5.07169,12.55962 0.76188,23.49374 -3.99082,10.12476 -3.99838,15.31045 -0.0325,24.0452 4.29557,9.46647 4.15417,21.55033 -0.36184,30.94931 -2.49624,5.19504 -3.00598,7.63063 -1.69102,8.08101 4.81564,1.64948 14.97349,10.46147 19.28818,16.73266 6.70433,9.74447 9.72634,20.43385 10.25957,36.29063 0.58788,17.48909 2.74449,21.06303 14.82738,24.57559 7.85123,2.28239 11.11139,2.35639 27.24804,0.61796 46.32196,-4.98965 88.68221,4.62968 115.07957,26.13294 9.6077,7.82634 21.92737,23.22932 27.16656,33.9657 3.33326,6.83069 3.36042,6.84614 10.52091,5.98896 3.94846,-0.47242 16.82673,-1.63533 28.61845,-2.58374 z"
       id="path4245" />
    <path
       style="fill:#003359;fill-opacity:1"
       d="m 414.34113,771.08175 c -7.3231,-3.29066 -10.88233,-6.67986 -14.53888,-13.84433 -6.88257,-13.48526 -5.1909,-28.74131 4.35916,-39.31207 6.90915,-7.64762 13.90247,-10.06166 26.77399,-9.24205 17.60317,1.12088 27.71899,12.82957 27.79054,32.16663 0.0732,19.11067 -10.96112,31.31952 -29.11615,32.2228 -6.36681,0.31711 -11.67268,-0.37484 -15.26866,-1.99098 z"
       id="path4243" />
    <path
       style="fill:#003359;fill-opacity:1"
       d="m 414.86234,656.1439 c -8.29673,-2.11165 -15.56081,-7.55956 -19.68652,-14.76469 -3.76665,-6.57789 -3.92895,-8.07833 -4.43129,-40.97219 -0.54397,-35.61152 0.33338,-42.72907 6.29875,-51.1202 4.14442,-5.82926 20.91709,-13.44469 40.02337,-18.17211 43.51105,-10.76573 66.52319,-26.97767 61.60322,-43.39915 -2.26922,-7.57403 -7.09535,-13.82774 -18.06827,-23.41284 -28.37752,-24.78846 -73.43347,-31.27651 -115.575,-16.64273 -11.69918,4.06254 -22.80666,9.79391 -37.23489,19.21264 -13.82929,9.02796 -21.21354,10.83591 -30.78652,7.53777 -10.68735,-3.68216 -17.45113,-9.18147 -21.69792,-17.64163 -4.91776,-9.79675 -4.96297,-16.88577 -0.17319,-27.17136 4.37347,-9.39207 11.67609,-16.02639 29.4301,-26.73667 20.19642,-12.1838 42.80591,-20.49971 72.4092,-26.63251 14.30569,-2.96362 55.99447,-2.41104 71.40924,0.94662 49.27737,10.73345 86.10197,36.5344 105.58034,73.97436 11.1309,21.39486 14.05012,42.36496 8.73727,62.76238 -9.25905,35.54793 -46.88277,65.47183 -98.77811,78.56282 l -6.74946,1.70265 -0.0407,16.21682 c -0.0407,18.96521 -1.4588,26.2488 -6.56261,33.79113 -6.38739,9.43906 -23.3243,15.11115 -35.70942,11.95889 z"
       id="path4239" />
  </g>
</svg>
